Coordinates
version=1
nRows=29
nColumns=22
inDegrees=yes

Units are S.I. units (second, meters, Newtons, ...)
If the header above contains a line with 'inDegrees', this indicates whether rotational values are in degrees (yes) or radians (no).

endheader
time	pelvis_tilt	pelvis_list	pelvis_rotation	pelvis_tx	pelvis_ty	pelvis_tz	hip_flexion_r	hip_adduction_r	hip_rotation_r	knee_angle_r	ankle_angle_r	subtalar_angle_r	hip_flexion_l	hip_adduction_l	hip_rotation_l	knee_angle_l	ankle_angle_l	subtalar_angle_l	lumbar_extension	lumbar_bending	lumbar_rotation
      0.01000000	     -9.10776997	      0.39481840	    -12.32316634	     -1.05220669	      0.88134356	     -0.16767590	      9.11192611	     -5.52157829	      3.98115817	     -6.54433404	     11.37926150	      1.15623699	      6.61124319	     -6.05746479	    -10.97131710	     -7.85982667	     13.60551764	      7.00883112	      4.04881767	     -0.08459315	      8.20539234
      0.02000000	     -9.10356564	      0.40681233	    -12.30208844	     -1.05211232	      0.88134333	     -0.16761461	      9.09600394	     -5.53483271	      3.96174714	     -6.53962563	     11.38245737	      1.15250638	      6.61173004	     -6.04633311	    -10.96269067	     -7.87204849	     13.60655358	      7.01616730	      4.05168320	     -0.09746388	      8.23580143
      0.03000000	     -9.10457099	      0.40954128	    -12.28013495	     -1.05200677	      0.88133836	     -0.16753521	      9.08578000	     -5.53525263	      3.96334333	     -6.54501356	     11.38377342	      1.15214308	      6.61011096	     -6.04671537	    -10.96282284	     -7.87294901	     13.60635971	      7.01667073	      4.05861618	     -0.09460704	      8.24584052
      0.04000000	     -9.09192460	      0.39817861	    -12.22769485	     -1.05187158	      0.88135093	     -0.16748983	      9.03288428	     -5.52953928	      3.89932845	     -6.51590540	     11.41607031	      1.13922852	      6.59632506	     -6.05548253	    -10.89867872	     -7.87501214	     13.61373236	      7.02959864	      4.04517364	     -0.08320152	      8.26225542
      0.05000000	     -9.09232846	      0.39827377	    -12.19958834	     -1.05177200	      0.88134561	     -0.16741478	      9.01721977	     -5.52834535	      3.88870524	     -6.51292384	     11.42101753	      1.13729537	      6.59677811	     -6.05889965	    -10.88531230	     -7.87843490	     13.61048404	      7.03080421	      4.04380840	     -0.07639502	      8.29582320
      0.06000000	     -9.08823573	      0.39402810	    -12.17066848	     -1.05163734	      0.88134295	     -0.16734321	      8.99090405	     -5.52497303	      3.86334699	     -6.50566409	     11.43604405	      1.13316328	      6.58766610	     -6.06526524	    -10.85304362	     -7.88108601	     13.61081627	      7.03320259	      4.04196670	     -0.06265325	      8.32730031
      0.07000000	     -9.07771903	      0.38535242	    -12.13366826	     -1.05150726	      0.88134984	     -0.16729276	      8.95727641	     -5.51942587	      3.82922821	     -6.50164337	     11.45488822	      1.12675642	      6.57095964	     -6.07196890	    -10.81027990	     -7.87750811	     13.61350933	      7.03643144	      4.02742489	     -0.04418970	      8.34238103
      0.08000000	     -9.07996392	      0.38922066	    -12.11182298	     -1.05140542	      0.88133814	     -0.16722691	      8.95015689	     -5.52199288	      3.83090867	     -6.50677024	     11.45576417	      1.12625375	      6.57037411	     -6.07076315	    -10.81060648	     -7.87503237	     13.61371897	      7.03655242	      4.02560450	     -0.03393507	      8.34914254
      0.09000000	     -9.05220653	      0.37023799	    -12.06559862	     -1.05127120	      0.88136953	     -0.16720311	      8.89817083	     -5.51178527	      3.76717575	     -6.50980270	     11.49264270	      1.11396444	      6.53201268	     -6.08223859	    -10.74120569	     -7.86467636	     13.62023883	      7.03988790	      3.98303309	     -0.00713206	      8.34097753
      0.10000000	     -9.05494102	      0.37493193	    -12.04868568	     -1.05116523	      0.88135655	     -0.16714088	      8.89273939	     -5.51514221	      3.76901256	     -6.51368648	     11.49297787	      1.11353320	      6.53159808	     -6.08053693	    -10.74142066	     -7.86432502	     13.61961071	      7.03984310	      3.98058006	      0.00301610	      8.34862855
      0.11000000	     -9.05699050	      0.37866745	    -12.03192762	     -1.05106053	      0.88134526	     -0.16709101	      8.88673689	     -5.51804392	      3.76846789	     -6.51814575	     11.49637800	      1.11274581	      6.53123177	     -6.07820117	    -10.73749009	     -7.86512229	     13.61887997	      7.03981738	      3.97412865	      0.01514588	      8.35922457
      0.12000000	     -9.03239598	      0.36834865	    -12.00490247	     -1.05095048	      0.88137091	     -0.16704405	      8.85697221	     -5.51226656	      3.72371068	     -6.54234353	     11.54302295	      1.10125019	      6.49750454	     -6.08452383	    -10.69010131	     -7.86078351	     13.62259111	      7.03676759	      3.93065359	      0.03286365	      8.35998796
      0.13000000	     -9.03695900	      0.37396202	    -11.99378294	     -1.05084522	      0.88135527	     -0.16698905	      8.85444241	     -5.51610267	      3.72466810	     -6.54462115	     11.54368851	      1.10078578	      6.49747459	     -6.08138251	    -10.69093103	     -7.85958334	     13.62216316	      7.03659152	      3.92528345	      0.04426769	      8.36490774
      0.14000000	     -9.04208202	      0.37952587	    -11.98401675	     -1.05074754	      0.88134250	     -0.16693534	      8.85322480	     -5.51965826	      3.72406276	     -6.54686795	     11.54606112	      1.10021875	      6.49772264	     -6.07813579	    -10.69119292	     -7.85780205	     13.62180834	      7.03638247	      3.91743518	      0.05597647	      8.37056674
      0.15000000	     -9.04796710	      0.38528481	    -11.97643814	     -1.05065870	      0.88132792	     -0.16688511	      8.85370034	     -5.52310001	      3.72104180	     -6.54860535	     11.54997741	      1.09954373	      6.49855265	     -6.07462849	    -10.69149564	     -7.85503929	     13.62147803	      7.03610106	      3.90758579	      0.06805754	      8.37715376
      0.16000000	     -9.05310142	      0.39043122	    -11.97128030	     -1.05056347	      0.88131127	     -0.16683013	      8.86028339	     -5.52529303	      3.68347916	     -6.56352459	     11.57873805	      1.09538124	      6.49332147	     -6.07143836	    -10.68940721	     -7.84580001	     13.61781905	      7.03307717	      3.89747808	      0.07810724	      8.40908626
      0.17000000	     -9.06198846	      0.39739464	    -11.97050590	     -1.05051111	      0.88129460	     -0.16678598	      8.86601854	     -5.52893509	      3.67971316	     -6.56111854	     11.58095051	      1.09499498	      6.49761060	     -6.06718848	    -10.69113528	     -7.84124047	     13.61783459	      7.03280213	      3.88259376	      0.08950901	      8.41126358
      0.18000000	     -9.09626787	      0.42156359	    -11.97046486	     -1.05047658	      0.88123232	     -0.16675849	      8.93216808	     -5.54471062	      3.61944724	     -6.61265625	     11.61729932	      1.09205313	      6.53161180	     -6.04883932	    -10.70061557	     -7.83165568	     13.60370195	      7.02043493	      3.90086021	      0.08786661	      8.43125015
      0.19000000	     -9.11924196	      0.43238687	    -11.97376323	     -1.05044210	      0.88119441	     -0.16672987	      8.95002503	     -5.55070666	      3.58871095	     -6.59722216	     11.62151466	      1.09292086	      6.55451292	     -6.04349878	    -10.70146693	     -7.83236353	     13.60146595	      7.01770492	      3.90075382	      0.09670155	      8.46540442
      0.20000000	     -9.19491273	      0.46058300	    -11.96734006	     -1.05047294	      0.88107726	     -0.16672935	      9.05777707	     -5.56334649	      3.53977889	     -6.63505656	     11.62251652	      1.10529056	      6.65369042	     -6.03181409	    -10.70406797	     -7.85147334	     13.59285316	      7.00552807	      3.95755406	      0.09725941	      8.47036185
      0.21000000	     -9.21740202	      0.46839905	    -11.96958890	     -1.05044368	      0.88104364	     -0.16670470	      9.07244220	     -5.56609862	      3.51146195	     -6.61762106	     11.63156487	      1.10751412	      6.67638615	     -6.02953876	    -10.70128089	     -7.85215397	     13.59354538	      7.00452652	      3.95266501	      0.10625342	      8.50320067
      0.22000000	     -9.28601323	      0.48719334	    -11.95370590	     -1.05043705	      0.88094086	     -0.16671874	      9.15444048	     -5.57360916	      3.46743586	     -6.63515237	     11.63159026	      1.12436772	      6.76514464	     -6.02457436	    -10.68861030	     -7.86994527	     13.59110110	      7.00262501	      4.00080115	      0.11267317	      8.49975023
      0.23000000	     -9.29860571	      0.49197005	    -11.95128697	     -1.05038111	      0.88092301	     -0.16669758	      9.15989096	     -5.57648572	      3.46351101	     -6.62820394	     11.63364198	      1.12458165	      6.77302663	     -6.02236649	    -10.68955048	     -7.86462149	     13.59163689	      7.00274269	      3.98284138	      0.12051650	      8.50530612
      0.24000000	     -9.35342175	      0.50100039	    -11.92684355	     -1.05028373	      0.88084266	     -0.16670423	      9.19471015	     -5.57908027	      3.42307639	     -6.60360687	     11.63495256	      1.13919237	      6.83255921	     -6.02212459	    -10.66325975	     -7.86762473	     13.58968479	      7.00948206	      4.02264255	      0.12935807	      8.51736035
      0.25000000	     -9.36653818	      0.50458595	    -11.91954502	     -1.05018629	      0.88082406	     -0.16669544	      9.19736982	     -5.58304758	      3.42158051	     -6.59898595	     11.63664413	      1.13947466	      6.83901190	     -6.01985057	    -10.66434666	     -7.86273542	     13.59004201	      7.00976878	      4.00656376	      0.13785485	      8.52349372
      0.26000000	     -9.39277129	      0.50749878	    -11.90393015	     -1.05004897	      0.88078583	     -0.16668862	      9.19517197	     -5.58517153	      3.40382530	     -6.56701821	     11.64603727	      1.14397013	      6.85691780	     -6.01952210	    -10.65049868	     -7.85622259	     13.58852034	      7.01369743	      4.01165478	      0.14509240	      8.55480597
      0.27000000	     -9.41956101	      0.51037745	    -11.88367073	     -1.04990387	      0.88075009	     -0.16669463	      9.19347280	     -5.58842046	      3.39508097	     -6.53932604	     11.64754343	      1.15020298	      6.87332423	     -6.01774801	    -10.63899462	     -7.84327544	     13.58725550	      7.01888363	      4.01655258	      0.15338252	      8.57053522
      0.28000000	     -9.44534586	      0.51320675	    -11.86681905	     -1.04976835	      0.88071600	     -0.16670374	      9.19319292	     -5.59229198	      3.38761944	     -6.51237945	     11.64662141	      1.15720693	      6.88816608	     -6.01557624	    -10.62969624	     -7.82963930	     13.58487074	      7.02428812	      4.01595295	      0.16088700	      8.58681727
      0.29000000	     -9.47219891	      0.51658883	    -11.85195416	     -1.04963119	      0.88068210	     -0.16670816	      9.19299115	     -5.59628502	      3.38036962	     -6.48220833	     11.64509054	      1.16576501	      6.90203043	     -6.01352447	    -10.62273145	     -7.81325218	     13.58175550	      7.03020899	      4.01550772	      0.16662577	      8.60551886
